<svg xmlns="http://www.w3.org/2000/svg" fill="none" viewBox="0 0 470 312"><path fill="#e81e26" d="M138.96 10.528L10.683 134.625C4.277 140.065.186 146.453.186 155.594c0 9.099 4.096 15.51 10.498 20.991l128.275 124.056c.824.842 1.62 1.178 2.297 1.178 1.215 0 2.053-1.105 2.016-2.403-.037-.764-.368-1.643-1.128-2.402-30.11-37.41-52.017-80.313-52.017-140.97 0-60.692 21.908-104.439 52.017-141.875.76-.75 1.091-1.616 1.128-2.398.041-1.326-.801-2.398-2.016-2.398-.677-.014-1.473.317-2.297 1.155" class="logo-w"/><path fill="#095ba5" d="M237.577.02c-50.227 0-69.852 71.178-69.852 156.015 0 84.865 19.625 155.095 69.852 155.095 30.141 0 55.832-17.65 55.915-32.158.014-3.176-1.21-6.218-3.875-8.873-14.286-13.803-19.874-27.597-19.915-39.77-.092-23.238 20.067-40.548 38.651-40.548 25.549 0 40.617 20.08 40.617 46.084 0 24.642-10.498 45.164-21.921 61.6a3.79 3.79 0 00-.654 2.08c.01 1.289.769 2.347 1.906 2.347.69 0 1.5-.368 2.384-1.256l128.308-124.055c6.406-5.477 10.498-11.893 10.498-20.992 0-9.136-4.096-15.529-10.498-20.969L330.685 10.524c-.88-.88-1.69-1.252-2.384-1.252-1.146 0-1.897 1.067-1.906 2.36 0 .663.203 1.404.654 2.086 11.418 16.412 21.921 36.958 21.921 61.58 0 25.986-15.068 46.085-40.617 46.085-18.584 0-38.743-17.296-38.651-40.538.041-12.174 5.629-25.981 19.915-39.77 2.665-2.67 3.889-5.684 3.875-8.865C293.41 17.68 267.718.02 237.577.02" class="logo-e"/></svg>
