<svg xmlns="http://www.w3.org/2000/svg" viewBox="0 0 150 150"><path fill="none" d="M0 0h150v150H0z"/><path fill="#FFF" fill-rule="evenodd" d="M41.54 117.38L.11 74.81 41.43 31.5c-15.18 16.5-14.66 69.92.11 85.88z"/><path fill="#FFF" fill-rule="evenodd" d="M71.12 29.17c11.65-2.36 18.67.23 24.73 10.83-7.28.4-11.85 3.4-12.44 10.48-.81 10.28 4.26 17.77 16.28 17.85 9.3.06 15.8-9.14 15.79-17.85 0-4.59-1.66-16.07-5-18.95L150 75l-39.49 42.68c2.64-2.29 5.23-14.19 5.23-18.17 0-8.71-6.74-17.4-16-17.33-11.77.1-17 9.24-16.27 17.34.54 6.68 5.94 9.67 12.22 10.13-6.2 10.84-10.08 13.53-22.26 11.55C56 118.32 52.17 97.92 52.17 75c0-21.54 6.21-42.58 19-45.82z"/></svg>
