<svg xmlns="http://www.w3.org/2000/svg" fill="none" viewBox="0 0 14 14"><path fill="#8B979E" d="M5.1934 7.86l-3.5267 3.5333v-1.06a.6666.6666 0 10-1.3333 0v2.6666a.6673.6673 0 00.0533.2534.6668.6668 0 00.36.36.6687.6687 0 00.2533.0533h2.6667a.6668.6668 0 00.4714-1.1381.6667.6667 0 00-.4714-.1952h-1.06L6.14 8.8066a.6694.6694 0 10-.9466-.9467zM2.6067 1.6665h1.06a.6666.6666 0 100-1.3333H1a.6667.6667 0 00-.2533.0533.6667.6667 0 00-.36.36.6667.6667 0 00-.0533.2533v2.6667a.6667.6667 0 101.3333 0v-1.06l3.5267 3.5333a.6669.6669 0 00.9466 0 .6667.6667 0 000-.9466L2.6067 1.6665zm10.3933 8a.6668.6668 0 00-.6666.6667v1.06L8.8067 7.8599a.6694.6694 0 10-.9467.9467l3.5334 3.5267h-1.06a.6668.6668 0 00-.6667.6666.6666.6666 0 00.6667.6667H13a.6689.6689 0 00.2534-.0533.667.667 0 00.36-.36.6674.6674 0 00.0533-.2534v-2.6666A.6663.6663 0 0013 9.6666zm.6134-8.92a.6668.6668 0 00-.36-.36A.6669.6669 0 0013 .3333h-2.6666a.6667.6667 0 000 1.3333h1.06L7.86 5.1932a.6669.6669 0 000 .9467.6669.6669 0 00.9467 0l3.5267-3.5333v1.06a.6667.6667 0 101.3333 0V.9999a.6668.6668 0 00-.0533-.2533z"/></svg>