<svg xmlns="http://www.w3.org/2000/svg" viewBox="0 0 100 100"><path d="M41.1 94h-.3H41.1zM42 93.9c.3 0 .7 0 1-.1-.3 0-.6.1-1 .1zM91 48.3h-3.2V47c0-1-.8-1.9-1.9-1.9h-1.5v-.6c0-18.6-15.1-33.7-33.7-33.7S17.1 26 17.1 44.6v.6h-1.7c-1 0-1.9.8-1.9 1.9v1.2h-3.2c-2.8 0-5 2.2-5 5V69c0 2.8 2.2 5 5 5h3.2v1.2c0 1 .8 1.9 1.9 1.9h7.1c1 0 1.9-.8 1.9-1.9V47c0-.9-.6-1.6-1.5-1.8v-.6c0-15.3 12.5-27.8 27.8-27.8s27.8 12.5 27.8 27.8v.6c-.9.1-1.6.9-1.6 1.9v28.1c0 1 .8 1.9 1.9 1.9h3.9v1.4c0 3.5-2.9 6.4-6.4 6.4h-16V82c0-1.8-1.5-3.3-3.3-3.3h-4.3c-1.8 0-3.3 1.5-3.3 3.3v4.9c0 1.1.9 2 2 2H76c5.8 0 10.5-4.7 10.5-10.5v-1.2c.8-.2 1.3-1 1.3-1.8v-1.2H91c2.8 0 5-2.2 5-5v-16c0-2.7-2.2-4.9-5-4.9z"/></svg>