<svg xmlns="http://www.w3.org/2000/svg" fill="none" viewBox="0 0 11 7"><path fill="#1AB895" d="M10.96 1.2593a.499.499 0 00-.27-.2684.5027.5027 0 00-.19-.0397H8a.5015.5015 0 00-.3536.1455.4954.4954 0 00-.1464.3514c0 .1318.0526.2582.1464.3514A.5015.5015 0 008 1.9451h1.295L6.5 4.723l-1.645-1.64a.5002.5002 0 00-.355-.147.5026.5026 0 00-.355.147l-3 2.9818a.497.497 0 00-.148.3528.4944.4944 0 00.148.3529.5003.5003 0 00.355.147.5026.5026 0 00.355-.147L4.5 4.1365l1.645 1.64a.5002.5002 0 00.355.147.5026.5026 0 00.355-.147L10 2.6458v1.2871c0 .1318.0526.2582.1464.3514a.5017.5017 0 00.7071 0A.4954.4954 0 0011 3.933V1.4481a.495.495 0 00-.04-.1888z"/></svg>