<svg
  class="w-4 h-4 mt-2 ml-auto mr-2 text-black fill-current"
  xmlns="http://www.w3.org/2000/svg"
  viewBox="0 0 27 27"
>
  <path
    d="M16.2775 13.0363l9.9968-9.9958c.6997-.6997.6955-1.8208 0-2.5173-.6965-.6997-1.8176-.6912-2.513 0l-9.9958 9.9957L3.7698.5232c-.6998-.6997-1.8208-.6955-2.5131 0a1.7756 1.7756 0 000 2.5173l9.9968 9.9958-9.9968 9.9914a1.7743 1.7743 0 000 2.5163c.6965.7008 1.8176.6965 2.513 0l9.9958-9.9957 9.9957 9.9957c.6998.7008 1.8208.6965 2.513 0a1.7743 1.7743 0 000-2.5163l-9.9967-9.9914z"
    fill-rule="evenodd"
  />
</svg>