<svg xmlns="http://www.w3.org/2000/svg" fill-rule="evenodd" clip-rule="evenodd" image-rendering="optimizeQuality" shape-rendering="geometricPrecision" text-rendering="geometricPrecision" viewBox="0 0 336 275"><path d="M38 37V24C38 11 49 0 63 0h67c13 0 23 10 24 22 1 4 3 6 7 6h151c14 0 24 11 24 25v148h-17V53c0-4-3-7-7-7H161c-13 0-23-10-24-22 0-4-3-7-7-7H63c-4 0-7 3-7 7v13H38z" class="fil0"/><path d="M24 50h68c12 0 23 9 24 22 0 3 3 6 7 6h151c13 0 24 11 24 24v149c0 13-11 24-24 24H24c-13 0-24-11-24-24V74c0-13 11-24 24-24zm68 17H24c-4 0-7 3-7 7v177c0 4 3 7 7 7h250c4 0 7-3 7-7V102c0-3-3-6-7-6H123c-13 0-24-10-24-23-1-3-4-6-7-6z" class="fil0"/></svg>
