<svg xmlns="http://www.w3.org/2000/svg" viewBox="0 0 64 64"><path d="M55 31h-2v-9h-3v9h-2V20h-3v11h-2v-4h-3v4h-3v2h24v-2h-3v-7h-3zM7 49L3 59l5 3 5-11 .66-3.287-5.539-4.309z"/><circle cx="14" cy="16" r="6"/><path d="M32 4h3V2h-5v13.586l-3.489 3.489C26.347 19.031 26.178 19 26 19c-1.1 0-2 .9-2 2s.9 2 2 2 2-.9 2-2c0-.178-.031-.347-.075-.511L32 16.414V4zM37 2h4v2h-4zM37 6h11v2H37zM55 10h7v2h-7zM37 14h13v2H37zM43 2h10v2H43zM55 2h7v2h-7zM50 6h12v2H50zM37 10h2v2h-2zM41 10h12v2H41zM52 14h2v2h-2zM56 14h2v2h-2zM60 14h2v2h-2zM60 35.884L59.737 37H35.799L35 34h-6.141c-.446-1.723-1.996-3-3.859-3h-4v-2c0-3.87-3.13-7-7-7-1.94 0-3.68.78-4.95 2.05C7.78 25.32 7 27.06 7 29v9.04c0 1.24.57 2.4 1.54 3.16l.02.01 5.54 4.31L16 47l3 15h6l-3-18-3-6h-2c-1.654 0-3-1.346-3-3v-6h2v6c0 .551.448 1 1 1h16.416L38 53.219V57c0 1.654 1.346 3 3 3h1.185c.416 1.16 1.517 2 2.815 2s2.399-.84 2.815-2h4.37c.416 1.16 1.517 2 2.815 2 1.65 0 3-1.35 3-3s-1.35-3-3-3c-1.298 0-2.399.84-2.815 2h-4.37c-.416-1.16-1.517-2-2.815-2s-2.399.84-2.815 2H41c-.552 0-1-.449-1-1v-3h17.792l4.182-17.771L62 35h-2v.884zM55 58c.55 0 1 .45 1 1s-.45 1-1 1-1-.45-1-1 .45-1 1-1zm-10 0c.55 0 1 .45 1 1s-.45 1-1 1-1-.45-1-1 .45-1 1-1zm14.267-19l-.706 3H37.13l-.799-3h22.936zm-21.605 5H58.09l-.706 3H38.461l-.799-3zm2.13 8l-.799-3h17.921l-.706 3H39.792z"/></svg>