<svg xmlns="http://www.w3.org/2000/svg" viewBox="0 0 100 100"><path fill="none" d="M5 4.915h90v90.001H5z"/><path d="M91.541 32.366c-2.271-5.369-5.521-10.19-9.662-14.33-4.141-4.14-8.961-7.392-14.33-9.662-5.559-2.352-11.463-3.543-17.55-3.543-6.084 0-11.989 1.192-17.548 3.543-5.369 2.27-10.19 5.521-14.33 9.662-4.14 4.14-7.392 8.961-9.662 14.33-2.352 5.559-3.543 11.463-3.543 17.549 0 6.087 1.192 11.99 3.543 17.55 2.27 5.368 5.521 10.19 9.662 14.329 4.14 4.142 8.961 7.391 14.33 9.662C38.009 93.808 43.914 95 49.999 95c6.087 0 11.992-1.192 17.55-3.544 5.369-2.271 10.189-5.521 14.33-9.662 4.141-4.139 7.391-8.961 9.662-14.329 2.352-5.56 3.543-11.463 3.543-17.55 0-6.086-1.191-11.99-3.543-17.549zM72.145 22.098l-.09-.055c-.193-.116-.477-.364-.621-.54l-.461-.57c-.125-.156-.236-.469-.236-.669v-.793c0-.125.104-.229.229-.229h.84c.133.064.514.32.82.544.156.111.324.383.354.57l.02.12c.045.282.213.686.377.92l.219.306c.16.225.455.534.672.703l.377.292c.168.132.398.418.492.613.049.103.492 1.023.746 1.339.236.296.521.707.523.711.117.168.221.498.221.703v.183c0 .099-.057.134-.145.107l-.953-.286c-.197-.06-.479-.253-.605-.415l-.721-.925c-.176-.225-.512-.501-.768-.63l-.652-.327c-.139-.07-.248-.274-.23-.428l.041-.33c.041-.337-.156-.739-.449-.914zm-3.133.501l-.184.245c-.121.162-.398.352-.594.406l-1.072.302c-.055.016-.127.024-.205.024-.172 0-.354-.04-.465-.1l-.539-.293c-.135-.074-.309-.114-.488-.114-.199 0-.389.048-.533.135l-.436.261c-.047.028-.109.044-.176.044-.102 0-.201-.038-.262-.098l-1.246-1.245c-.123-.125-.205-.395-.174-.567l.193-.993c.035-.181.213-.43.373-.522l.061-.033c.107-.061.283-.1.447-.1.08 0 .152.009.209.026l.102.031c.15.046.352.072.551.072.111 0 .273-.008.418-.047.047-.013.102-.019.16-.019.15 0 .277.041.328.079.162.117.471.321.689.456l.486.3c.199.123.516.363.686.524l.471.443c.207.194.578.421.848.515l.301.105c.045.016.074.039.082.066.008.024-.004.061-.031.097zM49.999 92.711c-11.853 0-22.595-4.845-30.353-12.657a9.5724 9.5724 0 00-.086-.559l-.194-1.023c-.048-.247-.123-.65-.168-.898l-.202-1.112c-.05-.271-.181-.676-.301-.921l-.333-.688c-.079-.162-.078-.458.004-.619l.322-.646c.083-.167.322-.359.501-.406l.167-.044c.332-.086.626-.422.67-.762l.341-2.662c.035-.276.018-.707-.04-.979l-.267-1.256c-.052-.244-.129-.642-.172-.89l-.12-.699c-.035-.203.012-.544.099-.729l.709-1.507c.108-.23.287-.599.397-.817l.368-.738c.128-.258.229-.683.229-.97v-1.877c0-.378-.307-.687-.687-.687h-.274c-.188 0-.479-.124-.609-.261l-.419-.438c-.179-.185-.476-.477-.664-.65l-.517-.478c-.215-.198-.609-.398-.896-.455l-1.208-.236c-.183-.035-.439-.214-.537-.373l-.026-.042c-.146-.239-.43-.563-.648-.736l-.887-.71c-.218-.175-.595-.382-.858-.474l-.324-.112c-.131-.046-.223-.204-.197-.339l.056-.292c.011-.054.092-.507-.049-.737.005-.035.03-.108.091-.188.178-.231.211-.639.078-.949l-.051-.119c-.086-.201-.162-.526-.162-.695 0-.238-.109-.623-.249-.876l-.703-1.279c-.141-.257-.452-.571-.708-.714l-.392-.221c-.158-.089-.329-.333-.357-.512l-.59-3.719c-.045-.288-.224-.689-.404-.917l-1.155-1.44c1.951-8.756 6.592-16.51 13.007-22.345l.99-.297c.266-.081.652-.271.878-.433l.783-.563c.155-.111.466-.186.655-.156l1.049.164c.304.047.741-.054.993-.231l1.082-.757c.227-.16.535-.46.699-.684l1.473-2.008c.139-.19.404-.486.578-.646l.852-.784c.153-.141.281-.362.352-.587a42.503 42.503 0 015.952-2.313l-.131.116c-.195.172-.493.475-.664.673l-1.542 1.807c-.196.23-.142.42-.109.491.033.07.141.235.445.235h.487c.317 0 .721-.173.939-.403l.415-.436c.141-.148.441-.314.643-.354l1.551-.31c.254-.05.662-.152.909-.227l2.038-.616c.249-.076.645-.222.883-.326l2.58-1.131c.194-.085.55-.142.761-.122l1.652.157c.265.026.695.02.96-.012l3.119-.378c.281-.034.691-.169.939-.31l.848-.482c2.326.232 4.596.653 6.799 1.244-.021.036-.045.07-.064.104-.141.236-.307.627-.381.891-.045.165-.238.356-.404.402l-.336.091c-.164.045-.424-.024-.543-.144l-.146-.146c-.225-.225-.635-.385-.951-.374l-.734.028c-.277.01-.697.096-.957.195l-.184.071c-.178.068-.502.064-.678-.01l-.256-.106c-.23-.097-.609-.258-.84-.357l-.135-.06c-.318-.136-.754-.049-.996.199l-.217.225c-.176.184-.457.492-.625.687l-.32.371c-.154.179-.416.437-.572.561-.068.055-.221.041-.324-.062-.023-.024-.238-.232-.508-.232-.335 0-1.069.73-1.077.738-.147.148-.276.448-.302.506-.123.297-.107.736.036 1.021l.017.037c.134.268.431.574.675.695.232.116.639.207.925.207h.184c.068 0 .109.021.119.036.006.006.002.021-.002.029-.043.131-.223.296-.367.341-.32.098-.559.389-.559.677 0 .17-.038.509-.085.74l-.004.018c-.035.18-.216.421-.377.507l-.107.057c-.253.136-.582.424-.748.657l-.079.11c-.117.163-.357.297-.494.308-.12.008-.337-.092-.433-.235-.11-.165-.205-.49-.205-.697v-.305c0-.295-.129-.719-.294-.965l-.102-.154c-.121-.18-.259-.528-.294-.743l-.034-.198c-.061-.361-.394-.643-.759-.643h-.184c-.344 0-.712.253-.834.575l-.233.61c-.062.164-.275.351-.447.391l-.931.218c-.318.075-.656.356-.788.655l-.486 1.115c-.08.181-.071.369.023.513.094.145.261.227.461.227h.367c.287 0 .693-.092.926-.207.03-.016.057-.018.08-.007.031.015.057.052.069.102.075.301.344.639.627.787l.014.008c.157.083.323.306.346.467.023.166-.058.374-.145.441-.238.188-.322.587-.191.907.086.214.207.592.262.824l.034.146c.045.188.001.516-.091.687l-.061.111c-.09.166-.338.364-.52.416l-.635.178c-.203.058-.561.062-.765.009l-1.006-.259c-.337-.087-.748.065-.935.346-.159.237-.283.655-.283.951v.854c0 .334.216.718.5.892l.668.408c.244.149.658.29.941.32l1.242.132c.305.033.736-.083.984-.264l.954-.697c.194-.142.536-.362.746-.479l1.049-.589c.258-.146.563-.467.696-.731l.14-.279c.074-.146.29-.273.449-.268l.794.029c.265.01.692-.017.954-.058l.254-.04c.207-.032.555.013.744.096l.139.06c.166.074.357.299.4.475l.021.088c.074.298.334.663.588.833l.52.347c.227.151.609.339.869.427l.211.072c.172.059.385.268.445.438l.018.052c.094.267.318.639.512.847l.109.121c.135.143.309.213.482.192.172-.022.324-.132.418-.304l.295-.538c.096-.176.342-.396.527-.47l.371-.147c.123-.05.289.01.352.129l.609 1.145c.129.243.383.586.578.782l.391.391c.137.136.314.2.486.175.176-.025.326-.137.418-.306l.295-.54c.094-.169.344-.383.527-.447l.355-.125c.16-.057.426-.007.557.104l.523.445c.229.195.645.356.945.367l.795.028c.252.009.668.017.924.017h.428c.262 0 .686-.035.945-.078l.563-.095c.156-.025.373.074.457.21l.379.622c.107.179.203.52.203.729v1.099c0 .237-.033.636-.072.872l-.094.562c-.037.229-.152.597-.25.806l-.1.21c-.061.129-.092.288-.098.449l-.402-.518c-.17-.213-.469-.512-.682-.68l-.137-.106c-.199-.157-.514-.259-.805-.259-.064 0-.129.007-.188.018l-.689.132c-.135.026-.342.043-.539.043-.111 0-.213-.005-.293-.016l-1.043-.13c-.225-.029-.58-.141-.781-.246l-1.266-.67c-.156-.083-.369-.13-.586-.13-.162 0-.313.026-.436.075l-.676.271c-.344.136-.541.523-.451.881l.021.089c.051.199.035.527-.033.703-.041.108-.201.183-.334.153l-.693-.161c-.229-.052-.605-.179-.818-.278l-.633-.29c-.207-.094-.523-.307-.689-.462l-.309-.29c-.213-.2-.605-.405-.891-.464l-.266-.056c-.229-.048-.604-.17-.816-.266l-.387-.174a.1944.1944 0 01-.109-.116c-.018-.052-.012-.108.016-.16l.057-.108c.137-.255.242-.68.242-.968v-.297c0-.259-.014-.626-.029-.819-.029-.307-.344-.548-.717-.548h-.61c-.26 0-.682.024-.938.053l-1.836.204c-.067.007-.151.011-.243.011-.211 0-.44-.021-.589-.05l-.568-.119a1.1347 1.1347 0 00-.234-.022c-.273 0-.575.079-.771.2l-.32.198c-.219.135-.566.367-.774.515l-.78.558c-.113.081-.314.136-.491.136-.053 0-.101-.004-.14-.014l-1.369-.333a.7283.7283 0 00-.183-.021c-.299 0-.604.16-.756.398l-.482.754c-.114.176-.377.411-.566.502l-.823.396c-.273.132-.585.453-.708.73l-.36.811c-.096.214-.293.557-.431.748l-.438.603c-.135.185-.406.453-.59.586l-1.455 1.051c-.228.165-.526.479-.677.716l-.911 1.426c-.141.221-.342.597-.447.836l-.974 2.214c-.151.342-.041.736.251.894.076.042.126.198.077.338l-.062.175c-.091.257-.181.671-.205.943l-.224 2.507c-.023.256-.041.675-.041.934v1.83c0 .354.266.708.605.804l.402.115c.154.044.316.23.338.391l.059.435c.038.279.178.69.32.934l.884 1.526c.14.241.416.572.627.752l1.379 1.177c.2.171.549.418.779.55l.794.459c.134.078.309.119.488.119.199 0 .387-.05.532-.141l.385-.242c.129-.082.362-.143.553-.143.046 0 .086.005.122.011l.442.08c.062.012.126.018.191.018.223 0 .504-.071.638-.271.004-.001.011-.001.02-.001.056 0 .127.027.192.072l.653.453c.186.13.467.21.735.21.099 0 .19-.011.271-.031l3.265-.865c.195-.051.571-.051.766.002l.704.188c.176.048.406.243.483.409l.29.634c.135.294.476.572.791.647l.146.035c.266.062.672.111.928.111.186 0 .498.104.662.224l.357.258c.145.104.275.362.275.541v.305c0 .237-.029.64-.066.876l-.104.682c-.051.325.09.741.328.968l.133.128c.117.114.18.361.129.518l-.023.076c-.104.32.002.755.24.991l1.305 1.307c.186.186.508.462.719.617l.178.13c.145.106.275.365.275.544v1.403c0 .267.045.693.102.953l.295 1.365c.041.185-.018.498-.121.659l-.844 1.307c-.15.231-.326.62-.4.887l-.424 1.499c-.082.292-.047.739.08 1.014l.775 1.672c.102.22.246.596.316.824l.279.896c.066.214.107.584.09.809l-.051.674c-.023.288.053.721.172.985l.418.935c.105.231.283.607.396.835l.262.524c.098.193.182.551.182.765v.672c0 .315.168.721.389.943l.025.023c.223.223.627.391.943.391h.488c.273 0 .695-.058.959-.131.09-.025 2.193-.612 2.379-.674.188-.063 2.219-1.347 3.082-1.896.232-.148.557-.428.734-.639l1.723-2.01c.154-.178.441-.451.627-.594l1.168-.905c.234-.181.492-.541.588-.819l.313-.904c.09-.262.162-.687.162-.965v-.306c0-.18.131-.446.271-.556l.619-.478c.205-.16.525-.437.711-.616l1.541-1.499c.186-.183.471-.497.631-.703l.961-1.231c.186-.238.332-.658.332-.959v-1.16c0-.265-.043-.691-.092-.951l-.133-.688c-.045-.235-.096-.638-.109-.877l-.066-1.1c-.014-.205.07-.54.176-.717l.564-.925c.119-.199.363-.503.529-.665l1.111-1.072c.227-.22.4-.624.4-.94v-1.16c0-.181.129-.446.271-.556l.619-.479c.215-.167.516-.463.686-.676l1.139-1.42c.172-.219.381-.597.471-.86l.498-1.453c.082-.24.213-.631.291-.873l.449-1.387c.086-.264.152-.687.152-.964v-.366c0-.384-.314-.681-.701-.652l-.736.054c-.275.02-.691.115-.949.215l-.916.356c-.232.091-.615.232-.852.316l-.297.105c-.051.019-.117.027-.189.027-.152 0-.313-.042-.408-.109l-.289-.204c-.156-.111-.277-.345-.277-.474 0-.276-.156-.66-.363-.892-.188-.209-.529-.473-.779-.602l-.711-.363c-.178-.091-.402-.332-.48-.516l-.189-.44c-.094-.218-.219-.597-.271-.829l-.221-.939c-.063-.268-.236-.608-.449-.741-.074-.048-.246-.253-.346-.469l-.477-1.059c-.098-.213-.219-.587-.268-.817l-.18-.873c-.059-.29-.27-.679-.479-.888l-.33-.33c-.162-.164-.398-.471-.512-.672l-.035-.06c-.125-.219-.332-.577-.461-.795l-1.365-2.324c-.1-.167-.256-.404-.395-.598h.85c.17 0 .406.133.49.281l.146.249c.129.217.34.572.471.788l.627 1.046c.141.236.412.567.615.751.172.155 1.027.928 1.295 1.067.146.111.676.941 1.086 1.652.127.22.324.576.439.795l.973 1.816c.125.231.355.589.514.799l.238.311c.123.161.23.48.23.682v.183c0 .271.047.69.107.955l.285 1.244c.074.326.369.651.686.757l.781.259c.098.033.207.048.32.048.248 0 .508-.074.689-.207l1.338-.984c.211-.155.533-.432.719-.617l.756-.756c.186-.186.463-.506.621-.715l.732-.976c.168-.227.357-.617.426-.891l.506-1.981c.066-.265.119-.686.119-.958v-.976c0-.306-.156-.725-.359-.953l-.736-.838c-.174-.198-.482-.493-.689-.658l-.506-.405a.6762.6762 0 00-.506-.144.6656.6656 0 00-.453.262l-.238.31c-.168.219-.373.593-.465.852-.016.048-.037.064-.047.067-.01.002-.037-.002-.076-.039l-.541-.486c-.15-.135-.311-.427-.346-.627l-.088-.502c-.053-.31-.289-.681-.545-.863l-1.145-.813c-.168-.119-.379-.393-.449-.587l-.111-.3c-.088-.243-.234-.628-.326-.859l-.094-.246c-.008-.017-.01-.029-.014-.041.012 0 .025.002.041.004l.748.139c.195.037.479.204.605.358l.273.331c.168.203.465.508.664.68l.225.194c.219.19.613.384.898.441l.629.125c.23.045.607.164.824.256l.439.188c.238.103.637.246.885.319l.771.229c.271.081.707.11.99.068l.314-.047c.189-.029.502.047.658.158l.111.079c.154.111.33.384.365.573l.072.382c.063.326.357.664.674.768l.412.138c.18.06.422.269.506.439l.018.035c.107.213.252.584.32.811l.047.159c.059.201.186.333.35.365s.332-.044.461-.208l.082-.104.119.59c.051.26.176.67.279.915l.439 1.048c.09.217.207.596.254.827l.186.934c.053.261.18.671.285.915l.371.868c.057.133.145.303.24.467.105 1.228.16 2.471.16 3.727.009 23.6-19.188 42.798-42.787 42.798z"/><path d="M81.572 67.516c-.113 0-.225.045-.334.135l-.635.52c-.229.188-.471.56-.551.847l-.061.216c-.053.185-.248.442-.412.542l-.131.077c-.219.133-.57.352-.783.49l-.453.295c-.232.15-.551.438-.725.653l-.463.569c-.189.236-.338.655-.338.957v.245c0 .203-.105.526-.227.689l-.313.423c-.154.211-.383.567-.51.794l-.471.848c-.156.282-.186.72-.068 1.021l.215.553c.104.265.367.442.654.442.08 0 .16-.014.234-.042l.482-.175c.283-.103.631-.38.793-.632l.174-.269c.139-.213.365-.553.506-.755l.578-.834c.139-.203.383-.522.541-.712l.33-.396c.178-.216.389-.591.48-.857l.436-1.271c.074-.215.252-.553.391-.735l.732-.978c.18-.239.32-.661.32-.961v-1.22c.004-.332-.193-.479-.391-.479z"/></svg>