<svg xmlns="http://www.w3.org/2000/svg" viewBox="0 0 100 100"><path d="M5.1 5v90h90V5h-90zm86 4v36.3h-82V9h82zm-82 40.3h55V91h-55V49.3zm59 41.7V49.3h23V91h-23z"/><path d="M35 65.2c-2.7.4-5.7 2-7.6 4.4l-9.8-5.7c3.8-5.7 10.2-9.6 17.3-10.1v11.4zm22 1.2l-9.9 5.7c.6 1.4.9 2.8.9 4.4 0 1.6-.3 3-.9 4.4l9.9 5.7c1.5-3 2.4-6.5 2.4-10.1 0-3.7-.9-7.1-2.4-10.1zm-30.8 5.7l-9.9-5.7c-1.5 3-2.4 6.5-2.4 10.1 0 3.6.9 7.1 2.4 10.1l9.9-5.7c-.6-1.4-.9-2.8-.9-4.4 0-1.6.4-3.1.9-4.4zm17.9-4.4c.2-.3.3-.7.5-1 0-.1.1-.2.1-.3.4-.9.8-1.8 1.2-2.6 0-.1.1-.1.1-.2.2-.4.3-.7.5-1.1 0-.1.1-.2.1-.2.2-.4.4-.9.6-1.3.2-.4.3-.8.5-1.1 0-.1.1-.2.1-.2.2-.4.3-.7.4-1v-.1c.2-.4.3-.7.4-1.1v-.1c.6-1.5 1.1-2.7 1.3-3.4-.5.6-1.2 1.6-2.2 2.9l-.1.1c-.2.3-.4.6-.7.9-.2.3-.4.6-.7.9-.1.1-.1.2-.2.2l-.6.9c0 .1-.1.1-.1.2-.3.4-.5.7-.8 1.1 0 .1-.1.1-.1.2l-.6.9c-.1.1-.2.2-.2.3-.6.8-1.1 1.5-1.7 2.3-.1.1-.1.2-.2.2l-.6.9c-.1-.2-.1-.1-.2 0-3.4 4.6-6.4 8.9-6.8 9.5-.8 1.4-.3 3.1 1 3.9 1.4.8 3.1.3 3.9-1 .4-.6 2.6-5.3 4.9-10.5.1-.1.1-.2.2-.2zm5.4-10c-1.2 3-3 7-4.7 10.8.3.3.6.7.9 1.1l9.8-5.7c-1.6-2.4-3.7-4.5-6-6.2zM47 56.2c-2.7-1.4-5.9-2.2-9-2.4v11.4c.7.1 1.4.2 2 .4 2.5-3.3 5.1-6.8 7-9.4zM19.5 41h-6V17.3h6V41zM29 13.2h-6V41h6V13.2zm9.5 12.5h-6V41h6V25.7zM48 21h-6v20h6V21zm9.5-3.7h-6V41h6V17.3zm9.5 8.4h-6V41h6V25.7zm9.5 6.4h-6V41h6v-8.9zM86 29h-6v12h6V29zM71 53.5h17v4.9H71zM71 63.2h12.8v4.9H71zM71 72.5h9.1v4.9H71zM71 81.7h12.8v4.9H71z"/></svg>