<svg xmlns="http://www.w3.org/2000/svg" viewBox="0 0 64 64"><path d="M13 40C6.935 40 2 44.935 2 51s4.935 11 11 11 11-4.935 11-11c0-2.673-.961-5.125-2.552-7.034l1.398-1.398C25.303 44.7 28.499 46 32 46s6.697-1.3 9.154-3.432l1.398 1.398C40.961 45.875 40 48.327 40 51c0 6.065 4.935 11 11 11s11-4.935 11-11-4.935-11-11-11c-2.673 0-5.125.961-7.034 2.552l-1.398-1.398C44.7 38.697 46 35.501 46 32s-1.3-6.697-3.432-9.154l1.398-1.398C45.875 23.039 48.327 24 51 24c6.065 0 11-4.935 11-11S57.065 2 51 2 40 6.935 40 13c0 2.673.961 5.125 2.552 7.034l-1.398 1.398C38.697 19.3 35.501 18 32 18s-6.697 1.3-9.154 3.432l-1.398-1.398C23.039 18.125 24 15.673 24 13c0-6.065-4.935-11-11-11S2 6.935 2 13s4.935 11 11 11c2.673 0 5.125-.961 7.034-2.552l1.398 1.398C19.3 25.303 18 28.499 18 32s1.3 6.697 3.432 9.154l-1.398 1.398C18.125 40.961 15.673 40 13 40zm31 8c0-.552.448-1 1-1h8c.552 0 1 .448 1 1v1h2c.552 0 1 .448 1 1 0 .551.449 1 1 1 .552 0 1 .448 1 1v2c0 .552-.448 1-1 1h-1v2h-2v-2h-7v2h-2v-2h-1c-.552 0-1-.448-1-1v-6zm4.04-36.334C47.401 10.957 47 10.028 47 9c0-2.206 1.794-4 4-4s4 1.794 4 4c0 1.028-.401 1.957-1.04 2.666C56.342 12.784 58 15.199 58 18c0 .552-.448 1-1 1H45c-.552 0-1-.448-1-1 0-2.801 1.658-5.216 4.04-6.334zM23 29c0-.276.112-.526.293-.707l4-4A.9974.9974 0 0128 24h12c.404 0 .769.244.924.617.051.124.067.254.067.383H41v9c0 .265-.105.52-.293.707l-4 4A.9969.9969 0 0136 39H24c-.552 0-1-.448-1-1v-9zm-3-13c0 .552-.448 1-1 1v1h-2v-1h-7v1H8v-1H6c-.552 0-1-.448-1-1v-1c0-2.206 1.794-4 4-4s4 1.794 4 4h2V8c0-.552.448-1 1-1h2v2h-1v2.142c1.72.447 3 2 3 3.858v1zm-2 40c-1.654 0-3-1.346-3-3 0-1.079.577-2.018 1.434-2.547l-.648-.973-4.837 4.031C10.704 54.922 9.479 56 8 56c-1.654 0-3-1.346-3-3s1.346-3 3-3c.341 0 .663.069.969.175l-.864-1.727c-.155-.31-.138-.678.044-.973C8.332 47.18 8.653 47 9 47h2v2h-.382l.771 1.541 3.281-2.734-1.502-2.252a.9981.9981 0 01-.05-1.026A.9994.9994 0 0114 44h3v2h-1.131l2.705 4.058C19.954 50.327 21 51.542 21 53c0 1.654-1.346 3-3 3z"/><path d="M31.586 26h-3.172l-2 2h3.172zM37.586 26h-3.172l-2 2h3.172zM35 30h-4v2h-2v-2h-4v7h10zM57 52.829A3.018 3.018 0 0155.171 51H54v2h3v-.171zM46 49h6v4h-6z"/><circle cx="51" cy="9" r="2"/><path d="M51 13c-2.415 0-4.435 1.721-4.899 4H55.9c-.465-2.279-2.485-4-4.9-4zM17 13.278V15h1c0-.737-.405-1.375-1-1.722zM9 13c-1.103 0-2 .897-2 2h4c0-1.103-.897-2-2-2zM37 35.586l2-2v-6.172l-2 2z"/><circle cx="8" cy="53" r="1"/><circle cx="18" cy="53" r="1"/></svg>