<svg xmlns="http://www.w3.org/2000/svg" viewBox="0 0 76 77"><path d="M39.082 72.074c-.36.011-.72.027-1.084.027-5.627-.001-10.927-1.37-15.602-3.782L39.223 39.76l32.635-5.784c.155 1.32.244 2.66.244 4.023 0 3.354-.492 6.588-1.393 9.646 1.045 1.328 1.931 2.786 2.616 4.354 1.72-4.334 2.675-9.054 2.675-14C75.998 17.012 58.988 0 38 0S.002 17.012 0 38.001C.002 58.988 17.012 76 38 76c1.574 0 3.121-.106 4.645-.293-1.338-1.054-2.532-2.276-3.563-3.633zM37.998 3.896c9.424.002 17.938 3.814 24.115 9.988 1.434 1.436 2.734 3.001 3.896 4.671L38.972 35.117 27.519 5.544c3.301-1.065 6.821-1.647 10.479-1.648zm-24.113 9.989c2.874-2.872 6.259-5.226 10-6.93l1.345 3.471L7.344 23.048a34.2465 34.2465 0 016.541-9.163zM5.387 28.006l20.93-14.771 2.114 5.458L3.961 35.96c.163-2.753.649-5.417 1.426-7.954zM3.935 39.558L29.519 21.5l2.113 5.456L4.821 45.879c-.484-2.043-.789-4.154-.886-6.321zm1.737 9.3l27.047-19.093 2.114 5.457L7.974 54.179c-.915-1.693-1.682-3.474-2.302-5.321zm3.809 7.834l26.087-18.41-7.007 11.894-15.576 10.993a34.2838 34.2838 0 01-3.504-4.477zm5.609 6.569l9.865-6.962-5.918 10.045a34.2384 34.2384 0 01-3.947-3.083zm44.371-3.622c-1.737 0-3.041 1.049-3.041 3.238s1.304 3.239 3.041 3.239c1.736 0 3.039-1.05 3.039-3.239s-1.303-3.238-3.039-3.238zm0 4.922c-.67 0-.941-.688-.941-1.684s.271-1.682.941-1.682c.669 0 .939.687.939 1.682s-.27 1.684-.939 1.684zm-5.881-7.437c0-2.189-1.303-3.24-3.04-3.24s-3.04 1.051-3.04 3.24 1.303 3.238 3.04 3.238 3.04-1.049 3.04-3.238zm-3.98 0c0-.995.271-1.684.94-1.684s.941.688.941 1.684-.272 1.683-.941 1.683-.94-.688-.94-1.683zm20.132 7.677c.494-1.513.768-3.123.768-4.801 0-8.562-6.941-15.5-15.499-15.5-8.56 0-15.501 6.938-15.501 15.5s6.941 15.5 15.501 15.5c3.086 0 5.954-.912 8.37-2.468l3.162 2.779c1.871 1.641 4.613 1.575 6.129-.148l1.365-1.56c1.515-1.724 1.23-4.452-.639-6.091l-3.656-3.211zM55 71c-6.072 0-11-4.925-11-11s4.928-11 11-11c6.074 0 11 4.925 11 11s-4.926 11-11 11zm2.688-16.988l-7.563 11.924h2.153l7.563-11.924h-2.153z"/></svg>