<svg xmlns="http://www.w3.org/2000/svg" fill="none" viewBox="0 0 14 14"><path fill="#A9B1B8" d="M9.4733 7.4037c.6536-.533 1.1307-1.2638 1.3649-2.0908a4.2904 4.2904 0 00-.0583-2.5236c-.2721-.8145-.7824-1.5208-1.4598-2.0207C8.6425.2686 7.8316 0 7 0c-.8316 0-1.6426.2686-2.32.7686-.6775.4999-1.1878 1.2062-1.4599 2.0207a4.2891 4.2891 0 00-.0583 2.5236c.2342.827.7113 1.5578 1.3649 2.0908-1.12.465-2.0972 1.2363-2.8274 2.2316C.969 10.6307.513 11.8127.38 13.0555a.7196.7196 0 00.0227.2702.7044.7044 0 00.1207.2406c.1113.1438.2731.236.45.2561a.6542.6542 0 00.4928-.1486.7022.7022 0 00.2471-.4663c.1464-1.3506.7678-2.598 1.7455-3.5039.9777-.9058 2.2431-1.4065 3.5545-1.4065s2.5769.5007 3.5546 1.4065c.9776.9059 1.599 2.1533 1.7454 3.5039a.6997.6997 0 00.2194.4401.6531.6531 0 00.4473.1748h.0733a.6607.6607 0 00.4444-.2548.7086.7086 0 00.1423-.5052c-.1337-1.2463-.5921-2.4314-1.3261-3.4283-.734-.9968-1.716-1.7679-2.8406-2.2304zM7 6.913c-.5274 0-1.043-.162-1.4815-.4658-.4386-.3036-.7804-.7353-.9822-1.2403a2.8574 2.8574 0 01-.1517-1.5968c.1029-.5361.3568-1.0286.7298-1.415.373-.3866.848-.6498 1.3654-.7564a2.5799 2.5799 0 011.5407.1572c.4873.2092.9037.5635 1.1967 1.018.293.4544.4495.9888.4495 1.5354 0 .733-.281 1.436-.781 1.9542-.5002.5183-1.1785.8095-1.8857.8095z"/></svg>