<svg xmlns="http://www.w3.org/2000/svg" viewBox="0 0 100 100"><path d="M99.5 45.8h-9.8c-2-18.6-16.8-33.5-35.4-35.4V.5h-8.5v9.8c-18.6 2-33.5 16.8-35.4 35.4H.5v8.5h9.8c2 18.6 16.8 33.5 35.4 35.4v9.8h8.5v-9.8c18.6-2 33.5-16.8 35.4-35.4h9.8v-8.4zM50 81.4c-17.3 0-31.4-14.1-31.4-31.4S32.7 18.6 50 18.6 81.4 32.7 81.4 50 67.3 81.4 50 81.4zm0-55.8c-13.5 0-24.4 10.9-24.4 24.4S36.5 74.4 50 74.4 74.4 63.5 74.4 50 63.5 25.6 50 25.6zm1.6 29.8l-4.8 4.7-4.7-4.8-4.6-4.6 4.8-4.7 4.6 4.6 10.9-10.8 4.7 4.8-10.9 10.8z"/></svg>