<svg xmlns="http://www.w3.org/2000/svg" fill="none" viewBox="0 0 12 9"><mask id="a" fill="#fff"><path fill-rule="evenodd" d="M7.6002 3.1999A1.9912 1.9912 0 008 2c0-1.1046-.8954-2-2-2S4 .8954 4 2c0 .4502.1487.8657.3998 1.1999L2.8196 5.175A1.9928 1.9928 0 002 5C.8954 5 0 5.8954 0 7s.8954 2 2 2 2-.8954 2-2c0-.4502-.1488-.8656-.3998-1.1999L5.1804 3.825C5.4305 3.9374 5.708 4 6 4c.292 0 .5695-.0626.8196-.1751L8.3998 5.8A1.9912 1.9912 0 008 7c0 1.1046.8954 2 2 2s2-.8954 2-2-.8954-2-2-2c-.292 0-.5695.0626-.8196.1751L7.6002 3.2z" clip-rule="evenodd"/></mask><path fill="#fff" fill-rule="evenodd" d="M7.6002 3.1999A1.9912 1.9912 0 008 2c0-1.1046-.8954-2-2-2S4 .8954 4 2c0 .4502.1487.8657.3998 1.1999L2.8196 5.175A1.9928 1.9928 0 002 5C.8954 5 0 5.8954 0 7s.8954 2 2 2 2-.8954 2-2c0-.4502-.1488-.8656-.3998-1.1999L5.1804 3.825C5.4305 3.9374 5.708 4 6 4c.292 0 .5695-.0626.8196-.1751L8.3998 5.8A1.9912 1.9912 0 008 7c0 1.1046.8954 2 2 2s2-.8954 2-2-.8954-2-2-2c-.292 0-.5695.0626-.8196.1751L7.6002 3.2z" clip-rule="evenodd"/><path fill="#00131F" d="M7.6002 3.1999l-.7996-.6005-.4655.6198.4843.6054.7808-.6247zm-3.2004 0l.7808.6247.4843-.6054-.4655-.6198-.7996.6005zM2.8196 5.175l-.4102.912.7069.318.4842-.6053-.7809-.6247zm.7806.625l-.7808-.6247-.4843.6054.4655.6198.7996-.6005zM5.1804 3.825l.4102-.912-.7069-.318-.4842.6053.7809.6247zm1.6392 0l.7809-.6247-.4842-.6053-.707.318.4103.912zM8.3998 5.8l.7996.6005.4655-.6198-.4843-.6054-.7808.6247zm.7806-.625l-.7809.6247.4842.6053.707-.318-.4103-.912zM7 2a.9912.9912 0 01-.1994.5994l1.5992 1.201A2.9912 2.9912 0 009 2H7zM6 1c.5523 0 1 .4477 1 1h2C9 .3431 7.6569-1 6-1v2zM5 2c0-.5523.4477-1 1-1v-2C4.3431-1 3 .3431 3 2h2zm.1994.5994A.9912.9912 0 015 2H3c0 .6741.2236 1.299.6002 1.8004l1.5992-1.201zm-1.599 3.2004l1.5802-1.9752L3.619 2.5752 2.0387 4.5504l1.5618 1.2494zM2 6a.993.993 0 01.4094.087l.8204-1.8239A2.993 2.993 0 002 4v2zM1 7c0-.5523.4477-1 1-1V4C.3431 4-1 5.3431-1 7h2zm1 1c-.5523 0-1-.4477-1-1h-2c0 1.6569 1.3431 3 3 3V8zm1-1c0 .5523-.4477 1-1 1v2c1.6568 0 3-1.3431 3-3H3zm-.1994-.5994A.9912.9912 0 013 7h2c0-.6741-.2236-1.299-.6002-1.8004l-1.5992 1.201zm1.599-3.2004L2.8193 5.1754 4.381 6.4248l1.5802-1.9752-1.5618-1.2494zM6 3a.993.993 0 01-.4094-.087l-.8204 1.8239A2.993 2.993 0 006 5V3zm.4094-.087A.993.993 0 016 3v2a2.993 2.993 0 001.2298-.2631l-.8204-1.824zm2.7712 2.2624L7.6005 3.2002 6.0387 4.4496 7.619 6.4248l1.5617-1.2494zM9 7c0-.2263.074-.4323.1994-.5994l-1.5992-1.201A2.9912 2.9912 0 007 7h2zm1 1c-.5523 0-1-.4477-1-1H7c0 1.6569 1.3431 3 3 3V8zm1-1c0 .5523-.4477 1-1 1v2c1.6569 0 3-1.3431 3-3h-2zm-1-1c.5523 0 1 .4477 1 1h2c0-1.6569-1.3431-3-3-3v2zm-.4094.087A.993.993 0 0110 6V4a2.993 2.993 0 00-1.2298.2631l.8204 1.824zM6.8194 3.8247l1.5801 1.9752 1.5618-1.2494L8.381 2.5752 6.8194 3.8246z" mask="url(#a)"/></svg>