<svg xmlns="http://www.w3.org/2000/svg" fill-rule="evenodd" clip-rule="evenodd" image-rendering="optimizeQuality" shape-rendering="geometricPrecision" text-rendering="geometricPrecision" viewBox="0 0 183 142"><defs></defs><path d="M92 18c13-27 57-18 80-12 2 4 8 14 11 21v112c-43-12-65-9-91 3-27-12-49-15-92-3V27c3-7 9-17 11-21C34 0 79-9 92 18zm-75 99c22-5 53-7 72 9V33C89-5 41 5 17 10v107zM166 10C142 5 94-5 94 33v93c19-16 50-14 72-9V10z" class="fil0"/><path d="M81 27c-13-11-39-8-57-4v-5c18-4 42-7 57 3v6zM102 21c15-10 39-7 57-3v5c-18-4-44-7-57 4v-6z" class="fil0"/><path d="M81 38c-13-11-39-8-57-4v-5c18-4 42-6 57 3v6zM102 32c15-9 39-7 57-3v5c-18-4-44-7-57 4v-6zM81 55c-13-11-39-8-57-4v-5c18-4 42-7 57 3v6zM102 49c15-10 39-7 57-3v5c-18-4-44-7-57 4v-6z" class="fil0"/><path d="M81 66c-13-11-39-8-57-4v-5c18-4 42-6 57 3v6zM102 60c15-9 39-7 57-3v5c-18-4-44-7-57 4v-6zM81 83c-13-11-39-8-57-4v-5c18-4 42-7 57 3v6zM102 77c15-10 39-7 57-3v5c-18-4-44-7-57 4v-6z" class="fil0"/><path d="M81 94c-13-11-39-8-57-4v-5c18-4 42-6 57 3v6zM102 88c15-9 39-7 57-3v5c-18-4-44-7-57 4v-6z" class="fil0"/></svg>
