<svg xmlns="http://www.w3.org/2000/svg" fill="none" viewBox="0 0 12 14"><path fill="#fff" d="M4 5.6666h.6666a.6666.6666 0 100-1.3334H4a.6667.6667 0 000 1.3334zm0 1.3333a.6667.6667 0 000 1.3333h4A.6667.6667 0 008 7H4zm7.3333-2.04a.88.88 0 00-.04-.18v-.06a.7135.7135 0 00-.1267-.1867l-4-4A.7133.7133 0 006.98.4067a.2134.2134 0 00-.06 0A.5867.5867 0 006.7.3333H2.6666a2 2 0 00-2 2v9.3333a2 2 0 002 2h6.6667a2 2 0 002-2V4.9999v-.04zm-4-2.3533L9.06 4.3332H8a.6667.6667 0 01-.6667-.6666v-1.06zM10 11.6666a.6666.6666 0 01-.6667.6667H2.6666A.6668.6668 0 012 11.6666V2.3332a.6667.6667 0 01.6666-.6666H6v2a2 2 0 002 2h2v6zm-2-2H4a.6667.6667 0 100 1.3333h4a.6667.6667 0 100-1.3333z"/></svg>