<svg xmlns="http://www.w3.org/2000/svg" data-name="Layer 1" viewBox="0 0 512 512"><path d="M209 8.07Q132.6 26.83 56.14 45.32c-4.43 1.08-4.64 3.68-4.64 7.2q-.14 79.88-.39 159.77-.22 115.71-.45 231.38c0 4.63 1.06 6.92 5.79 8.51q86.2 28.92 172.26 58.27c1.55.52 3.15.89 5.49 1.54.2-3.72.51-7 .54-10.23q.82-82.88 1.59-165.76 1.46-140.72 3-281.44c.2-18.19.56-36.37.85-54.56h-1C229.14 2.69 219.12 5.58 209 8.07zm9.08 262.32c-4.93 5-12.1 4.67-16.49-1.07-5.07-6.61-5.77-14-2.51-21.62 2.06-4.8 5.36-8.4 12.7-8.72 1.37.77 4.3 1.74 6.3 3.67 7 6.7 6.8 20.88 0 27.73zM331.76 58.91c4.46 0 6.06 1.06 6 5.82-.22 30.38-.07 60.77-.07 91.16v10.26c8 0 16.11.13 24-.22.76 0 2-3.07 2-4.73.15-18.86.11-37.73.11-56.59V38.5c0-3 0-5.36-4.34-5.33-30.38.17-60.77.09-91.15.11a23.53 23.53 0 00-2.57.25V59h6c19.97 0 39.97.12 60.02-.09zM358.43 346c-6.78.27-13.72.07-20.72.07V437h-76v26.29c2 .09 3.06.25 4.52.25 30.69 0 61.35-.09 92 .12 4.53 0 5.58-1.38 5.56-5.64q-.21-53.3 0-106.59c.09-4.2-1.25-5.55-5.36-5.43zM461.62 256L358 196.16V236h-71v40h71v39.84L461.62 256z"/></svg>