<svg xmlns="http://www.w3.org/2000/svg" viewBox="0 0 64 64"><g data-name="Price Tag With Discount"><path d="M15 18a2.9727 2.9727 0 00.88 2.12 2.0886 2.0886 0 00.22.2c.08.06.16.12.24.17s.17.1.25.15a2.9413 2.9413 0 002.82 0c.08-.05.17-.1.25-.15s.16-.11.24-.17a2.0886 2.0886 0 00.22-.2 2.99 2.99 0 00-3.4052-4.8193L2.707 1.293a1 1 0 00-1.414 1.414l14.0077 14.0078A2.9666 2.9666 0 0015 18zM44.1675 33.3906a2.9986 2.9986 0 102.1211.877 2.99 2.99 0 00-2.1211-.877zM28.6113 33.3906a2.9986 2.9986 0 102.1211.877 2.99 2.99 0 00-2.1211-.877z"/><path d="M61.54 34.67L34.52 7.65a4.9824 4.9824 0 00-3.83-1.45l-18.7 1.1c-.14.01-.28.02-.41.04l5.71 5.71A5.5188 5.5188 0 0118 13a5.0063 5.0063 0 11-5 5 5.5188 5.5188 0 01.05-.71l-5.71-5.71c-.02.13-.03.27-.04.41l-1.1 18.7a4.9687 4.9687 0 001.45 3.83l27.02 27.02a5.01 5.01 0 007.07 0l19.8-19.8a5.01 5.01 0 000-7.07zm-29.3935 5.2548a5 5 0 110-7.0713 4.9843 4.9843 0 010 7.0713zm5.3721 6.9815a1 1 0 01-2 0v-22a1 1 0 012 0zm10.184-6.9815a5 5 0 110-7.0713 4.984 4.984 0 010 7.0713z"/></g></svg>