<svg xmlns="http://www.w3.org/2000/svg" viewBox="0 0 100 100"><path d="M61.756 57.717l-4.769-.452a22.4745 22.4745 0 00-1.671-5.439l3.692-3.05c.967-.801 1.103-2.231.304-3.197l-4.677-5.656c-.798-.968-2.228-1.103-3.195-.306l-3.694 3.055c-1.574-1.112-3.266-2-5.027-2.665l.453-4.77c.118-1.249-.799-2.357-2.044-2.475l-7.308-.693c-1.249-.119-2.354.797-2.476 2.045l-.452 4.772c-1.856.319-3.684.876-5.437 1.672l-3.054-3.695c-.799-.966-2.23-1.102-3.195-.303l-5.657 4.676c-.965.798-1.103 2.231-.303 3.196l3.052 3.695c-1.11 1.573-2 3.263-2.664 5.027l-4.771-.455c-1.248-.118-2.357.798-2.475 2.048l-.693 7.305c-.118 1.248.795 2.355 2.046 2.473l4.771.454c.32 1.856.878 3.684 1.67 5.439l-3.695 3.05c-.967.801-1.1 2.233-.302 3.199l4.676 5.655c.798.968 2.229 1.103 3.196.304l3.692-3.053c1.574 1.11 3.265 2 5.029 2.665l-.451 4.77c-.123 1.249.795 2.355 2.044 2.474l7.303.693c1.25.119 2.359-.795 2.477-2.045l.452-4.77c1.858-.319 3.684-.876 5.44-1.67l3.051 3.693c.801.968 2.23 1.102 3.198.303l5.655-4.677c.967-.797 1.101-2.228.303-3.195l-3.05-3.693a22.4879 22.4879 0 002.66-5.029l4.773.454c1.249.119 2.354-.797 2.473-2.045l.696-7.307c.118-1.252-.797-2.359-2.046-2.477zM42.369 70.339c-5.091 4.209-12.63 3.494-16.84-1.597-4.208-5.091-3.493-12.631 1.598-16.838 5.093-4.213 12.632-3.496 16.84 1.597 4.21 5.09 3.495 12.63-1.598 16.838zM93.407 46.02c.686-.219 1.064-.953.845-1.64l-1.286-4.016c-.219-.686-.954-1.065-1.639-.846l-2.624.842a12.7565 12.7565 0 00-2.112-2.494l1.262-2.453c.331-.638.079-1.427-.561-1.755l-3.75-1.931c-.639-.33-1.427-.08-1.755.56l-1.264 2.454c-1.057-.227-2.15-.321-3.254-.273l-.838-2.623c-.22-.689-.955-1.066-1.641-.846l-4.017 1.283c-.685.22-1.063.956-.846 1.639l.842 2.627c-.93.602-1.764 1.313-2.494 2.111l-2.45-1.263c-.64-.332-1.426-.078-1.756.562l-1.931 3.747c-.332.642-.079 1.428.562 1.757l2.449 1.263a12.8462 12.8462 0 00-.272 3.255l-2.625.839c-.685.221-1.065.954-.844 1.641l1.284 4.015c.219.685.953 1.065 1.64.846l2.625-.84c.601.927 1.311 1.762 2.111 2.493l-1.262 2.448c-.33.642-.079 1.427.561 1.759l3.749 1.931c.64.33 1.427.077 1.756-.562l1.262-2.45c1.058.226 2.151.319 3.255.271l.839 2.624c.221.685.955 1.065 1.639.846l4.016-1.285c.688-.219 1.064-.953.847-1.641l-.841-2.622c.928-.602 1.763-1.313 2.494-2.113l2.451 1.265c.638.329 1.426.076 1.756-.564l1.93-3.748c.329-.64.08-1.426-.561-1.757l-2.451-1.261c.225-1.059.32-2.15.273-3.254l2.626-.841zm-13.483 7.945c-3.613 1.156-7.483-.838-8.638-4.449-1.158-3.618.837-7.485 4.451-8.64 3.616-1.158 7.486.835 8.639 4.45 1.156 3.612-.837 7.482-4.452 8.639z"/><path d="M41.457 29.711c.185.581.806.9 1.385.715l2.218-.711c.508.785 1.109 1.489 1.784 2.107l-1.065 2.069c-.28.543-.068 1.208.475 1.486l3.165 1.632c.541.28 1.207.068 1.486-.475l1.066-2.069c.896.19 1.818.268 2.753.229l.708 2.217c.186.58.808.901 1.387.714l3.394-1.086c.579-.186.899-.807.713-1.385l-.708-2.218c.782-.509 1.487-1.11 2.104-1.784l2.072 1.067c.54.28 1.206.066 1.484-.476l1.632-3.167c.28-.542.068-1.206-.474-1.485l-2.07-1.066c.188-.895.27-1.819.229-2.753l2.217-.709c.58-.184.901-.806.715-1.383l-1.086-3.394c-.183-.58-.806-.9-1.385-.716l-2.219.713a10.7478 10.7478 0 00-1.783-2.109l1.068-2.071c.277-.541.064-1.204-.478-1.484l-3.165-1.632c-.541-.278-1.207-.066-1.487.473l-1.067 2.072c-.894-.19-1.815-.269-2.75-.229l-.709-2.219c-.184-.58-.806-.9-1.387-.714l-3.392 1.086c-.581.187-.901.807-.714 1.387l.71 2.215c-.785.512-1.491 1.112-2.107 1.786l-2.072-1.066c-.541-.281-1.207-.067-1.485.475l-1.631 3.166c-.278.542-.065 1.208.476 1.486l2.07 1.067c-.191.893-.273 1.817-.229 2.749l-2.22.711c-.578.186-.9.804-.714 1.384l1.086 3.395zm11.02-11.495c3.057-.976 6.324.707 7.303 3.762.978 3.054-.706 6.324-3.762 7.301-3.054.977-6.324-.706-7.299-3.762-.979-3.054.704-6.324 3.758-7.301z"/></svg>