<svg xmlns="http://www.w3.org/2000/svg" fill="none" viewBox="0 0 8 12"><path fill="#8B979E" d="M.6665 1.7333c0-.589.4776-1.0666 1.0667-1.0666.589 0 1.0666.4775 1.0666 1.0666S2.3223 2.8 1.7332 2.8.6665 2.3224.6665 1.7333zM4.9332 1.7333c0-.589.4775-1.0666 1.0666-1.0666s1.0667.4775 1.0667 1.0666S6.5889 2.8 5.9998 2.8c-.589 0-1.0666-.4776-1.0666-1.0667zM4.9332 6c0-.5891.4775-1.0667 1.0666-1.0667S7.0665 5.411 7.0665 6s-.4776 1.0667-1.0667 1.0667c-.589 0-1.0666-.4776-1.0666-1.0667zM.6665 6c0-.5891.4776-1.0667 1.0667-1.0667.589 0 1.0666.4776 1.0666 1.0667s-.4775 1.0667-1.0666 1.0667S.6665 6.589.6665 6zM.6665 10.2667c0-.5891.4776-1.0667 1.0667-1.0667.589 0 1.0666.4776 1.0666 1.0667s-.4775 1.0666-1.0666 1.0666-1.0667-.4775-1.0667-1.0666zM4.9332 10.2667c0-.5891.4775-1.0667 1.0666-1.0667s1.0667.4776 1.0667 1.0667-.4776 1.0666-1.0667 1.0666c-.589 0-1.0666-.4775-1.0666-1.0666z"/></svg>