<svg xmlns="http://www.w3.org/2000/svg" fill="none" viewBox="0 0 22 22"><path fill="#8B979E" d="M9.38 12.0802a.9992.9992 0 00-.38-.08H5a.9997.9997 0 00-1 1 1 1 0 001 1h1.59l-5.3 5.29a.9988.9988 0 00-.2959.71 1.0003 1.0003 0 00.2958.71 1.001 1.001 0 00.71.2958 1.0013 1.0013 0 00.71-.2958l5.29-5.3v1.59a1 1 0 102 0v-4a.9998.9998 0 00-.08-.38 1 1 0 00-.54-.54zM9 4.0002a1 1 0 00-1 1v1.59l-5.29-5.3a1.0041 1.0041 0 10-1.42 1.42l5.3 5.29H5a1 1 0 100 2h4a1.0004 1.0004 0 00.38-.08 1 1 0 00.54-.54 1 1 0 00.08-.38v-4a1 1 0 00-1-1zm3.6199 5.92a1.001 1.001 0 00.38.08h4a.9998.9998 0 001-1 .9997.9997 0 00-1-1h-1.59l5.3-5.29a1.0041 1.0041 0 00-1.42-1.42l-5.29 5.3v-1.59a.9997.9997 0 00-1-1 1.0001 1.0001 0 00-1 1v4c.0016.1307.0288.2598.08.38.1015.2443.2957.4385.54.54zm2.79 4.08h1.59a1 1 0 100-2h-4a.9999.9999 0 00-.38.08 1.0002 1.0002 0 00-.54.54 1.001 1.001 0 00-.08.38v4a1.0001 1.0001 0 002 0v-1.59l5.29 5.3a1.0012 1.0012 0 00.71.2958 1.0008 1.0008 0 00.71-.2958.9987.9987 0 00.2958-.71.9997.9997 0 00-.2958-.71l-5.3-5.29z"/></svg>