<svg xmlns="http://www.w3.org/2000/svg" viewBox="0 0 22 22"><g fill="#000" fill-rule="nonzero"><path d="M5 21.5a.5003.5003 0 01-.5.5h-4a.5003.5003 0 01-.5-.5v-4a.5003.5003 0 01.5-.5h4a.5003.5003 0 01.5.5v4zM13.5 4.5a.5003.5003 0 01-.5.5H9a.5003.5003 0 01-.5-.5v-4A.5003.5003 0 019 0h4a.5003.5003 0 01.5.5v4zM13.5 21.5a.5003.5003 0 01-.5.5H9a.5003.5003 0 01-.5-.5v-4A.5003.5003 0 019 17h4a.5003.5003 0 01.5.5v4zM22 21.5a.5003.5003 0 01-.5.5h-4a.5003.5003 0 01-.5-.5v-4a.5003.5003 0 01.5-.5h4a.5003.5003 0 01.5.5v4zM19.5 10.5h-8V6h-1v4.5h-8a.4997.4997 0 00-.5.5v5h1v-4.5h7.5V16h1v-4.5H19V16h1v-5a.4997.4997 0 00-.5-.5z"/></g></svg>